<mxfile host="app.diagrams.net" modified="2023-11-23T12:16:45.537Z" agent="Mozilla/5.0 (Windows NT 10.0; Win64; x64) AppleWebKit/537.36 (KHTML, like Gecko) Chrome/119.0.0.0 Safari/537.36" etag="HuJFqKq4v3lu35WHyZXC" version="22.1.3" type="github">
  <diagram name="Pagina-1" id="_xdyVtsLKk-Tw6EEx5Ot">
    <mxGraphModel dx="724" dy="360" grid="1" gridSize="10" guides="1" tooltips="1" connect="1" arrows="1" fold="1" page="1" pageScale="1" pageWidth="827" pageHeight="1169" math="0" shadow="0">
      <root>
        <mxCell id="0" />
        <mxCell id="1" parent="0" />
        <mxCell id="OuVtsK2tXLnAGwOyxGMd-1" value="" style="rounded=0;whiteSpace=wrap;html=1;" vertex="1" parent="1">
          <mxGeometry x="43" y="40" width="760" height="730" as="geometry" />
        </mxCell>
        <mxCell id="OuVtsK2tXLnAGwOyxGMd-2" value="&lt;font style=&quot;font-size: 18px;&quot;&gt;Check coverage&lt;/font&gt;" style="rounded=0;whiteSpace=wrap;html=1;" vertex="1" parent="1">
          <mxGeometry x="40" y="40" width="760" height="60" as="geometry" />
        </mxCell>
        <mxCell id="OuVtsK2tXLnAGwOyxGMd-5" value="" style="endArrow=none;html=1;rounded=0;" edge="1" parent="1">
          <mxGeometry width="50" height="50" relative="1" as="geometry">
            <mxPoint x="549" y="175" as="sourcePoint" />
            <mxPoint x="309" y="315" as="targetPoint" />
          </mxGeometry>
        </mxCell>
        <mxCell id="OuVtsK2tXLnAGwOyxGMd-6" value="" style="endArrow=none;html=1;rounded=0;" edge="1" parent="1">
          <mxGeometry width="50" height="50" relative="1" as="geometry">
            <mxPoint x="309" y="175" as="sourcePoint" />
            <mxPoint x="549" y="315" as="targetPoint" />
          </mxGeometry>
        </mxCell>
        <mxCell id="OuVtsK2tXLnAGwOyxGMd-8" value="" style="endArrow=none;html=1;rounded=0;" edge="1" parent="1">
          <mxGeometry width="50" height="50" relative="1" as="geometry">
            <mxPoint x="429.8333333333335" y="136" as="sourcePoint" />
            <mxPoint x="429.8333333333335" y="356" as="targetPoint" />
          </mxGeometry>
        </mxCell>
        <mxCell id="OuVtsK2tXLnAGwOyxGMd-9" value="" style="endArrow=none;html=1;rounded=0;" edge="1" parent="1">
          <mxGeometry width="50" height="50" relative="1" as="geometry">
            <mxPoint x="437" y="246" as="sourcePoint" />
            <mxPoint x="433" y="251" as="targetPoint" />
          </mxGeometry>
        </mxCell>
        <mxCell id="OuVtsK2tXLnAGwOyxGMd-11" value="" style="endArrow=none;html=1;rounded=0;" edge="1" parent="1">
          <mxGeometry width="50" height="50" relative="1" as="geometry">
            <mxPoint x="452" y="255" as="sourcePoint" />
            <mxPoint x="448" y="260" as="targetPoint" />
          </mxGeometry>
        </mxCell>
        <mxCell id="OuVtsK2tXLnAGwOyxGMd-13" value="" style="endArrow=none;html=1;rounded=0;" edge="1" parent="1">
          <mxGeometry width="50" height="50" relative="1" as="geometry">
            <mxPoint x="466" y="263" as="sourcePoint" />
            <mxPoint x="462" y="268" as="targetPoint" />
          </mxGeometry>
        </mxCell>
        <mxCell id="OuVtsK2tXLnAGwOyxGMd-15" value="" style="endArrow=none;html=1;rounded=0;" edge="1" parent="1">
          <mxGeometry width="50" height="50" relative="1" as="geometry">
            <mxPoint x="479" y="271" as="sourcePoint" />
            <mxPoint x="475" y="276" as="targetPoint" />
          </mxGeometry>
        </mxCell>
        <mxCell id="OuVtsK2tXLnAGwOyxGMd-17" value="" style="endArrow=none;html=1;rounded=0;" edge="1" parent="1">
          <mxGeometry width="50" height="50" relative="1" as="geometry">
            <mxPoint x="493" y="279" as="sourcePoint" />
            <mxPoint x="489" y="284" as="targetPoint" />
          </mxGeometry>
        </mxCell>
        <mxCell id="OuVtsK2tXLnAGwOyxGMd-19" value="" style="endArrow=none;html=1;rounded=0;" edge="1" parent="1">
          <mxGeometry width="50" height="50" relative="1" as="geometry">
            <mxPoint x="506" y="287" as="sourcePoint" />
            <mxPoint x="502" y="292" as="targetPoint" />
          </mxGeometry>
        </mxCell>
        <mxCell id="OuVtsK2tXLnAGwOyxGMd-21" value="" style="endArrow=none;html=1;rounded=0;" edge="1" parent="1">
          <mxGeometry width="50" height="50" relative="1" as="geometry">
            <mxPoint x="424" y="238" as="sourcePoint" />
            <mxPoint x="420" y="243" as="targetPoint" />
          </mxGeometry>
        </mxCell>
        <mxCell id="OuVtsK2tXLnAGwOyxGMd-23" value="" style="endArrow=none;html=1;rounded=0;" edge="1" parent="1">
          <mxGeometry width="50" height="50" relative="1" as="geometry">
            <mxPoint x="409" y="229" as="sourcePoint" />
            <mxPoint x="405" y="234" as="targetPoint" />
          </mxGeometry>
        </mxCell>
        <mxCell id="OuVtsK2tXLnAGwOyxGMd-27" value="" style="endArrow=none;html=1;rounded=0;" edge="1" parent="1">
          <mxGeometry width="50" height="50" relative="1" as="geometry">
            <mxPoint x="393" y="221" as="sourcePoint" />
            <mxPoint x="389" y="226" as="targetPoint" />
          </mxGeometry>
        </mxCell>
        <mxCell id="OuVtsK2tXLnAGwOyxGMd-29" value="" style="endArrow=none;html=1;rounded=0;" edge="1" parent="1">
          <mxGeometry width="50" height="50" relative="1" as="geometry">
            <mxPoint x="379" y="212" as="sourcePoint" />
            <mxPoint x="375" y="217" as="targetPoint" />
          </mxGeometry>
        </mxCell>
        <mxCell id="OuVtsK2tXLnAGwOyxGMd-31" value="" style="endArrow=none;html=1;rounded=0;" edge="1" parent="1">
          <mxGeometry width="50" height="50" relative="1" as="geometry">
            <mxPoint x="365.00000000000045" y="204" as="sourcePoint" />
            <mxPoint x="361.00000000000045" y="209" as="targetPoint" />
          </mxGeometry>
        </mxCell>
        <mxCell id="OuVtsK2tXLnAGwOyxGMd-33" value="" style="endArrow=none;html=1;rounded=0;" edge="1" parent="1">
          <mxGeometry width="50" height="50" relative="1" as="geometry">
            <mxPoint x="434" y="253.83333333333303" as="sourcePoint" />
            <mxPoint x="424" y="253.83333333333303" as="targetPoint" />
          </mxGeometry>
        </mxCell>
        <mxCell id="OuVtsK2tXLnAGwOyxGMd-35" value="" style="endArrow=none;html=1;rounded=0;" edge="1" parent="1">
          <mxGeometry width="50" height="50" relative="1" as="geometry">
            <mxPoint x="434" y="269.8333333333335" as="sourcePoint" />
            <mxPoint x="424" y="269.8333333333335" as="targetPoint" />
          </mxGeometry>
        </mxCell>
        <mxCell id="OuVtsK2tXLnAGwOyxGMd-37" value="" style="endArrow=none;html=1;rounded=0;" edge="1" parent="1">
          <mxGeometry width="50" height="50" relative="1" as="geometry">
            <mxPoint x="434" y="283.83333333333303" as="sourcePoint" />
            <mxPoint x="424" y="283.83333333333303" as="targetPoint" />
          </mxGeometry>
        </mxCell>
        <mxCell id="OuVtsK2tXLnAGwOyxGMd-39" value="" style="endArrow=none;html=1;rounded=0;" edge="1" parent="1">
          <mxGeometry width="50" height="50" relative="1" as="geometry">
            <mxPoint x="434" y="297.8333333333335" as="sourcePoint" />
            <mxPoint x="424" y="297.8333333333335" as="targetPoint" />
          </mxGeometry>
        </mxCell>
        <mxCell id="OuVtsK2tXLnAGwOyxGMd-41" value="" style="endArrow=none;html=1;rounded=0;" edge="1" parent="1">
          <mxGeometry width="50" height="50" relative="1" as="geometry">
            <mxPoint x="434" y="309.8333333333335" as="sourcePoint" />
            <mxPoint x="424" y="309.8333333333335" as="targetPoint" />
          </mxGeometry>
        </mxCell>
        <mxCell id="OuVtsK2tXLnAGwOyxGMd-44" value="" style="endArrow=none;html=1;rounded=0;" edge="1" parent="1">
          <mxGeometry width="50" height="50" relative="1" as="geometry">
            <mxPoint x="434" y="229.83333333333348" as="sourcePoint" />
            <mxPoint x="424" y="229.83333333333348" as="targetPoint" />
          </mxGeometry>
        </mxCell>
        <mxCell id="OuVtsK2tXLnAGwOyxGMd-47" value="" style="endArrow=none;html=1;rounded=0;" edge="1" parent="1">
          <mxGeometry width="50" height="50" relative="1" as="geometry">
            <mxPoint x="434" y="215.83333333333348" as="sourcePoint" />
            <mxPoint x="424" y="215.83333333333348" as="targetPoint" />
          </mxGeometry>
        </mxCell>
        <mxCell id="OuVtsK2tXLnAGwOyxGMd-49" value="" style="endArrow=none;html=1;rounded=0;" edge="1" parent="1">
          <mxGeometry width="50" height="50" relative="1" as="geometry">
            <mxPoint x="434" y="201.83333333333348" as="sourcePoint" />
            <mxPoint x="424" y="201.83333333333348" as="targetPoint" />
          </mxGeometry>
        </mxCell>
        <mxCell id="OuVtsK2tXLnAGwOyxGMd-51" value="" style="endArrow=none;html=1;rounded=0;" edge="1" parent="1">
          <mxGeometry width="50" height="50" relative="1" as="geometry">
            <mxPoint x="434" y="186.83333333333348" as="sourcePoint" />
            <mxPoint x="424" y="186.83333333333348" as="targetPoint" />
          </mxGeometry>
        </mxCell>
        <mxCell id="OuVtsK2tXLnAGwOyxGMd-64" value="" style="endArrow=none;html=1;rounded=0;" edge="1" parent="1">
          <mxGeometry width="50" height="50" relative="1" as="geometry">
            <mxPoint x="356.00000000000045" y="294" as="sourcePoint" />
            <mxPoint x="350.00000000000045" y="285" as="targetPoint" />
          </mxGeometry>
        </mxCell>
        <mxCell id="OuVtsK2tXLnAGwOyxGMd-66" value="" style="endArrow=none;html=1;rounded=0;" edge="1" parent="1">
          <mxGeometry width="50" height="50" relative="1" as="geometry">
            <mxPoint x="368.00000000000045" y="287" as="sourcePoint" />
            <mxPoint x="362.00000000000045" y="278" as="targetPoint" />
          </mxGeometry>
        </mxCell>
        <mxCell id="OuVtsK2tXLnAGwOyxGMd-68" value="" style="endArrow=none;html=1;rounded=0;" edge="1" parent="1">
          <mxGeometry width="50" height="50" relative="1" as="geometry">
            <mxPoint x="379" y="280" as="sourcePoint" />
            <mxPoint x="373" y="271" as="targetPoint" />
          </mxGeometry>
        </mxCell>
        <mxCell id="OuVtsK2tXLnAGwOyxGMd-70" value="" style="endArrow=none;html=1;rounded=0;" edge="1" parent="1">
          <mxGeometry width="50" height="50" relative="1" as="geometry">
            <mxPoint x="391" y="273" as="sourcePoint" />
            <mxPoint x="385" y="264" as="targetPoint" />
          </mxGeometry>
        </mxCell>
        <mxCell id="OuVtsK2tXLnAGwOyxGMd-72" value="" style="endArrow=none;html=1;rounded=0;" edge="1" parent="1">
          <mxGeometry width="50" height="50" relative="1" as="geometry">
            <mxPoint x="402" y="267" as="sourcePoint" />
            <mxPoint x="396" y="258" as="targetPoint" />
          </mxGeometry>
        </mxCell>
        <mxCell id="OuVtsK2tXLnAGwOyxGMd-74" value="" style="endArrow=none;html=1;rounded=0;" edge="1" parent="1">
          <mxGeometry width="50" height="50" relative="1" as="geometry">
            <mxPoint x="414" y="260" as="sourcePoint" />
            <mxPoint x="408" y="251" as="targetPoint" />
          </mxGeometry>
        </mxCell>
        <mxCell id="OuVtsK2tXLnAGwOyxGMd-76" value="" style="endArrow=none;html=1;rounded=0;" edge="1" parent="1">
          <mxGeometry width="50" height="50" relative="1" as="geometry">
            <mxPoint x="425" y="254" as="sourcePoint" />
            <mxPoint x="419" y="245" as="targetPoint" />
          </mxGeometry>
        </mxCell>
        <mxCell id="OuVtsK2tXLnAGwOyxGMd-77" value="" style="endArrow=none;html=1;rounded=0;" edge="1" parent="1">
          <mxGeometry width="50" height="50" relative="1" as="geometry">
            <mxPoint x="440" y="245.00000000000045" as="sourcePoint" />
            <mxPoint x="434" y="236.00000000000045" as="targetPoint" />
          </mxGeometry>
        </mxCell>
        <mxCell id="OuVtsK2tXLnAGwOyxGMd-79" value="" style="endArrow=none;html=1;rounded=0;" edge="1" parent="1">
          <mxGeometry width="50" height="50" relative="1" as="geometry">
            <mxPoint x="458" y="235.00000000000045" as="sourcePoint" />
            <mxPoint x="452" y="226.00000000000045" as="targetPoint" />
          </mxGeometry>
        </mxCell>
        <mxCell id="OuVtsK2tXLnAGwOyxGMd-81" value="" style="endArrow=none;html=1;rounded=0;" edge="1" parent="1">
          <mxGeometry width="50" height="50" relative="1" as="geometry">
            <mxPoint x="474" y="225.00000000000045" as="sourcePoint" />
            <mxPoint x="468" y="216.00000000000045" as="targetPoint" />
          </mxGeometry>
        </mxCell>
        <mxCell id="OuVtsK2tXLnAGwOyxGMd-83" value="" style="endArrow=none;html=1;rounded=0;" edge="1" parent="1">
          <mxGeometry width="50" height="50" relative="1" as="geometry">
            <mxPoint x="490" y="216" as="sourcePoint" />
            <mxPoint x="484" y="207" as="targetPoint" />
          </mxGeometry>
        </mxCell>
        <mxCell id="OuVtsK2tXLnAGwOyxGMd-86" value="" style="endArrow=none;html=1;rounded=0;" edge="1" parent="1">
          <mxGeometry width="50" height="50" relative="1" as="geometry">
            <mxPoint x="506.00000000000045" y="206" as="sourcePoint" />
            <mxPoint x="500.00000000000045" y="197" as="targetPoint" />
          </mxGeometry>
        </mxCell>
        <mxCell id="OuVtsK2tXLnAGwOyxGMd-88" value="" style="endArrow=none;html=1;rounded=0;" edge="1" parent="1">
          <mxGeometry width="50" height="50" relative="1" as="geometry">
            <mxPoint x="520" y="198" as="sourcePoint" />
            <mxPoint x="514" y="189" as="targetPoint" />
          </mxGeometry>
        </mxCell>
        <mxCell id="OuVtsK2tXLnAGwOyxGMd-89" value="" style="endArrow=none;html=1;rounded=0;" edge="1" parent="1">
          <mxGeometry width="50" height="50" relative="1" as="geometry">
            <mxPoint x="309" y="316" as="sourcePoint" />
            <mxPoint x="429" y="356" as="targetPoint" />
          </mxGeometry>
        </mxCell>
        <mxCell id="OuVtsK2tXLnAGwOyxGMd-90" value="" style="endArrow=none;html=1;rounded=0;" edge="1" parent="1">
          <mxGeometry width="50" height="50" relative="1" as="geometry">
            <mxPoint x="549" y="316" as="sourcePoint" />
            <mxPoint x="429" y="356" as="targetPoint" />
          </mxGeometry>
        </mxCell>
        <mxCell id="OuVtsK2tXLnAGwOyxGMd-91" value="" style="endArrow=none;html=1;rounded=0;" edge="1" parent="1">
          <mxGeometry width="50" height="50" relative="1" as="geometry">
            <mxPoint x="309.8333333333335" y="176" as="sourcePoint" />
            <mxPoint x="309.8333333333335" y="316" as="targetPoint" />
          </mxGeometry>
        </mxCell>
        <mxCell id="OuVtsK2tXLnAGwOyxGMd-92" value="" style="endArrow=none;html=1;rounded=0;" edge="1" parent="1">
          <mxGeometry width="50" height="50" relative="1" as="geometry">
            <mxPoint x="429" y="136" as="sourcePoint" />
            <mxPoint x="309" y="176" as="targetPoint" />
          </mxGeometry>
        </mxCell>
        <mxCell id="OuVtsK2tXLnAGwOyxGMd-93" value="" style="endArrow=none;html=1;rounded=0;" edge="1" parent="1">
          <mxGeometry width="50" height="50" relative="1" as="geometry">
            <mxPoint x="429" y="136" as="sourcePoint" />
            <mxPoint x="549" y="176" as="targetPoint" />
          </mxGeometry>
        </mxCell>
        <mxCell id="OuVtsK2tXLnAGwOyxGMd-94" value="" style="endArrow=none;html=1;rounded=0;" edge="1" parent="1">
          <mxGeometry width="50" height="50" relative="1" as="geometry">
            <mxPoint x="549.8333333333335" y="176" as="sourcePoint" />
            <mxPoint x="549.8333333333335" y="316" as="targetPoint" />
          </mxGeometry>
        </mxCell>
        <mxCell id="OuVtsK2tXLnAGwOyxGMd-95" value="" style="endArrow=none;html=1;rounded=0;" edge="1" parent="1">
          <mxGeometry width="50" height="50" relative="1" as="geometry">
            <mxPoint x="434" y="323.83333333333303" as="sourcePoint" />
            <mxPoint x="424" y="323.83333333333303" as="targetPoint" />
          </mxGeometry>
        </mxCell>
        <mxCell id="OuVtsK2tXLnAGwOyxGMd-97" value="" style="endArrow=none;html=1;rounded=0;" edge="1" parent="1">
          <mxGeometry width="50" height="50" relative="1" as="geometry">
            <mxPoint x="434" y="344.8333333333335" as="sourcePoint" />
            <mxPoint x="424" y="344.8333333333335" as="targetPoint" />
          </mxGeometry>
        </mxCell>
        <mxCell id="OuVtsK2tXLnAGwOyxGMd-99" value="" style="endArrow=none;html=1;rounded=0;" edge="1" parent="1">
          <mxGeometry width="50" height="50" relative="1" as="geometry">
            <mxPoint x="519" y="295" as="sourcePoint" />
            <mxPoint x="515" y="300" as="targetPoint" />
          </mxGeometry>
        </mxCell>
        <mxCell id="OuVtsK2tXLnAGwOyxGMd-101" value="" style="endArrow=none;html=1;rounded=0;" edge="1" parent="1">
          <mxGeometry width="50" height="50" relative="1" as="geometry">
            <mxPoint x="534" y="303" as="sourcePoint" />
            <mxPoint x="530" y="308" as="targetPoint" />
          </mxGeometry>
        </mxCell>
        <mxCell id="OuVtsK2tXLnAGwOyxGMd-102" value="" style="endArrow=none;html=1;rounded=0;" edge="1" parent="1">
          <mxGeometry width="50" height="50" relative="1" as="geometry">
            <mxPoint x="352" y="197" as="sourcePoint" />
            <mxPoint x="348" y="202" as="targetPoint" />
          </mxGeometry>
        </mxCell>
        <mxCell id="OuVtsK2tXLnAGwOyxGMd-104" value="" style="endArrow=none;html=1;rounded=0;" edge="1" parent="1">
          <mxGeometry width="50" height="50" relative="1" as="geometry">
            <mxPoint x="340.00000000000045" y="190" as="sourcePoint" />
            <mxPoint x="336.00000000000045" y="195" as="targetPoint" />
          </mxGeometry>
        </mxCell>
        <mxCell id="OuVtsK2tXLnAGwOyxGMd-105" value="" style="endArrow=none;html=1;rounded=0;" edge="1" parent="1">
          <mxGeometry width="50" height="50" relative="1" as="geometry">
            <mxPoint x="434" y="173.83333333333303" as="sourcePoint" />
            <mxPoint x="424" y="173.83333333333303" as="targetPoint" />
          </mxGeometry>
        </mxCell>
        <mxCell id="OuVtsK2tXLnAGwOyxGMd-107" value="" style="endArrow=none;html=1;rounded=0;" edge="1" parent="1">
          <mxGeometry width="50" height="50" relative="1" as="geometry">
            <mxPoint x="434" y="159.83333333333348" as="sourcePoint" />
            <mxPoint x="424" y="159.83333333333348" as="targetPoint" />
          </mxGeometry>
        </mxCell>
        <mxCell id="OuVtsK2tXLnAGwOyxGMd-109" value="" style="endArrow=none;html=1;rounded=0;" edge="1" parent="1">
          <mxGeometry width="50" height="50" relative="1" as="geometry">
            <mxPoint x="434" y="146.83333333333348" as="sourcePoint" />
            <mxPoint x="424" y="146.83333333333348" as="targetPoint" />
          </mxGeometry>
        </mxCell>
        <mxCell id="OuVtsK2tXLnAGwOyxGMd-111" value="" style="endArrow=none;html=1;rounded=0;" edge="1" parent="1">
          <mxGeometry width="50" height="50" relative="1" as="geometry">
            <mxPoint x="535" y="190.00000000000045" as="sourcePoint" />
            <mxPoint x="529" y="181.00000000000045" as="targetPoint" />
          </mxGeometry>
        </mxCell>
        <mxCell id="OuVtsK2tXLnAGwOyxGMd-115" value="" style="endArrow=none;html=1;rounded=0;" edge="1" parent="1">
          <mxGeometry width="50" height="50" relative="1" as="geometry">
            <mxPoint x="329" y="183" as="sourcePoint" />
            <mxPoint x="325" y="188" as="targetPoint" />
          </mxGeometry>
        </mxCell>
        <mxCell id="OuVtsK2tXLnAGwOyxGMd-117" value="" style="shape=hexagon;perimeter=hexagonPerimeter2;whiteSpace=wrap;html=1;fixedSize=1;" vertex="1" parent="1">
          <mxGeometry x="170" y="850" width="120" height="110" as="geometry" />
        </mxCell>
        <mxCell id="OuVtsK2tXLnAGwOyxGMd-118" value="" style="shape=hexagon;perimeter=hexagonPerimeter2;whiteSpace=wrap;html=1;fixedSize=1;" vertex="1" parent="1">
          <mxGeometry x="180" y="860" width="100" height="90" as="geometry" />
        </mxCell>
        <mxCell id="OuVtsK2tXLnAGwOyxGMd-119" value="" style="shape=hexagon;perimeter=hexagonPerimeter2;whiteSpace=wrap;html=1;fixedSize=1;size=20;" vertex="1" parent="1">
          <mxGeometry x="190" y="870" width="80" height="70" as="geometry" />
        </mxCell>
        <mxCell id="OuVtsK2tXLnAGwOyxGMd-120" value="" style="shape=hexagon;perimeter=hexagonPerimeter2;whiteSpace=wrap;html=1;fixedSize=1;" vertex="1" parent="1">
          <mxGeometry x="200" y="880" width="60" height="50" as="geometry" />
        </mxCell>
        <mxCell id="OuVtsK2tXLnAGwOyxGMd-125" value="" style="endArrow=none;html=1;rounded=0;" edge="1" parent="1">
          <mxGeometry width="50" height="50" relative="1" as="geometry">
            <mxPoint x="434" y="334.8333333333335" as="sourcePoint" />
            <mxPoint x="424" y="334.8333333333335" as="targetPoint" />
          </mxGeometry>
        </mxCell>
        <mxCell id="OuVtsK2tXLnAGwOyxGMd-126" value="" style="endArrow=none;html=1;rounded=0;" edge="1" parent="1">
          <mxGeometry width="50" height="50" relative="1" as="geometry">
            <mxPoint x="345.00000000000045" y="301" as="sourcePoint" />
            <mxPoint x="339.00000000000045" y="292" as="targetPoint" />
          </mxGeometry>
        </mxCell>
        <mxCell id="OuVtsK2tXLnAGwOyxGMd-127" value="" style="endArrow=none;html=1;rounded=0;" edge="1" parent="1">
          <mxGeometry width="50" height="50" relative="1" as="geometry">
            <mxPoint x="335.00000000000045" y="307" as="sourcePoint" />
            <mxPoint x="329.00000000000045" y="298" as="targetPoint" />
          </mxGeometry>
        </mxCell>
        <mxCell id="OuVtsK2tXLnAGwOyxGMd-128" value="" style="endArrow=none;html=1;rounded=0;" edge="1" parent="1">
          <mxGeometry width="50" height="50" relative="1" as="geometry">
            <mxPoint x="323.00000000000045" y="314" as="sourcePoint" />
            <mxPoint x="317.00000000000045" y="305" as="targetPoint" />
          </mxGeometry>
        </mxCell>
      </root>
    </mxGraphModel>
  </diagram>
</mxfile>
